<svg xmlns="http://www.w3.org/2000/svg">


<style type="text/css">
    path:not(.svg-nocolor){fill:currentColor}
    use:not(.svg-nocolor):visited{color:currentColor}
    use:not(.svg-nocolor):hover{color:currentColor}
    use:not(.svg-nocolor):active{color:currentColor}
</style>


<defs>
<g id="icon_add_0_Layer1_0_FILL">
<path fill="#FFFFFF" fill-opacity="0" stroke="none" d="
M 0 0
L 0 15 15 15 15 0 0 0 Z"/>
</g>

<g id="icon_add_0_Layer0_0_FILL">
<path fill="#FFFFFF" stroke="none" d="
M 15 8
L 15 7 8 7 8 0 7 0 7 7 0 7 0 8 7 8 7 15 8 15 8 8 15 8 Z"/>
</g>

<g id="icon_0_Layer1_0_FILL">
<path fill="#FFFFFF" fill-opacity="0.9882352941176471" stroke="none" d="
M 32 4.2
L 27.65 0 15.85 11.8 4.2 0.15 0 4.35 11.65 16 0 27.65 4.2 31.85 15.85 20.2 27.65 32 31.85 27.8 20.2 16.15 32 4.2 Z"/>
</g>

<g id="icon_0_Layer0_0_FILL">
<path fill="#FFFFFF" fill-opacity="0" stroke="none" d="
M 32 0
L 0 0 0 32 32 32 32 0 Z"/>
</g>

<g id="menu_0_Layer1_0_FILL">
<path fill="#FFFFFF" stroke="none" d="
M 62.8 48.15
Q 61.65 47 60 47
L 4 47
Q 2.35 47 1.15 48.15 0 49.35 0 51
L 0 53
Q 0 54.65 1.15 55.8 2.35 57 4 57
L 60 57
Q 61.65 57 62.8 55.8 64 54.65 64 53
L 64 51
Q 64 49.35 62.8 48.15
M 64 31
Q 64 29.35 62.8 28.15 61.65 27 60 27
L 4 27
Q 2.35 27 1.15 28.15 0 29.35 0 31
L 0 33
Q 0 34.65 1.15 35.8 2.35 37 4 37
L 60 37
Q 61.65 37 62.8 35.8 64 34.65 64 33
L 64 31
M 64 11
Q 64 9.35 62.8 8.15 61.65 7 60 7
L 4 7
Q 2.35 7 1.15 8.15 0 9.35 0 11
L 0 13
Q 0 14.65 1.15 15.8 2.35 17 4 17
L 60 17
Q 61.65 17 62.8 15.8 64 14.65 64 13
L 64 11 Z"/>
</g>

<g id="menu_0_Layer0_0_FILL">
<path fill="#FFFFFF" fill-opacity="0" stroke="none" d="
M 64 64
L 64 0 0 0 0 64 64 64 Z"/>
</g>

<g id="icon_settings_0_Layer1_0_FILL">
<path fill="#FFFFFF" fill-opacity="0" stroke="none" d="
M 0 0
L 0 36 36 36 36 0 0 0 Z"/>
</g>

<g id="icon_settings_0_Layer0_0_FILL">
<path fill="#FFFFFF" stroke="none" d="
M 33.4 11.85
Q 34.5 11.45 34.05 10.25
L 33.5 8.85
Q 33.05 7.4 31.85 7.8
L 28.6 9.3
Q 28.05 8.6 27.4 7.95 25.7 6.25 23.7 5.3
L 24.8 2.5
Q 25.2 1.4 24.05 0.85
L 22.65 0.25
Q 21.3 -0.45 20.8 0.65
L 19.45 4.1
Q 18.6 4 17.75 4 15.3 4 13.15 4.75
L 11.95 2
Q 11.55 0.9 10.35 1.35
L 8.95 1.9
Q 7.5 2.35 7.9 3.55
L 9.4 6.85
Q 8.7 7.35 8.1 7.95 6.35 9.75 5.35 11.85
L 2.5 10.65
Q 1.4 10.25 0.85 11.4
L 0.25 12.8
Q -0.45 14.15 0.65 14.65
L 4.2 16.05
Q 4.1 16.8 4.1 17.65 4.1 20.1 4.85 22.2
L 2 23.45
Q 0.9 23.85 1.35 25.05
L 1.9 26.45
Q 2.35 27.9 3.55 27.5
L 7 26
Q 7.5 26.6 8.1 27.2 9.85 29 11.95 30
L 10.75 32.9
Q 10.35 34 11.5 34.55
L 12.9 35.15
Q 14.25 35.85 14.75 34.75
L 16.15 31.2
Q 16.95 31.3 17.75 31.3 20.2 31.3 22.4 30.55
L 23.6 33.4
Q 24 34.5 25.2 34.05
L 26.6 33.5
Q 28.05 33.05 27.65 31.85
L 26.15 28.45
Q 26.8 27.9 27.4 27.3
L 27.45 27.2
Q 29.1 25.55 30.1 23.6
L 32.9 24.75
Q 34 25.15 34.55 24
L 35.15 22.6
Q 35.85 21.25 34.75 20.75
L 31.3 19.4
Q 31.4 18.55 31.4 17.65 31.4 15.2 30.65 13.05
L 33.4 11.85
M 25.35 9.95
Q 28.6 13.15 28.6 17.65 28.6 22.1 25.35 25.2 22.3 28.45 17.75 28.45 13.3 28.45 10.15 25.2 6.95 22.1 6.95 17.65 6.95 13.2 10.15 10.05
L 10.2 9.95
Q 13.35 6.8 17.75 6.8 22.3 6.8 25.35 9.95
M 24.45 10.85
L 24.45 10.8
Q 21.765234375 8.051953125 17.75 8.05 13.8408203125 8.0521484375 11.05 10.85 8.2013671875 13.6916015625 8.2 17.65 8.1947265625 21.5587890625 11 24.3
L 11.05 24.3
Q 13.7892578125 27.1529296875 17.75 27.15 21.7845703125 27.140234375 24.45 24.25
L 24.45 24.3
Q 27.305078125 21.5763671875 27.3 17.65 27.298828125 13.64140625 24.45 10.85
M 23 12.25
L 23.05 12.25
Q 25.3013671875 14.4767578125 25.3 17.65 25.2947265625 20.7236328125 23.05 22.85 23.0373046875 22.9013671875 23 22.9 20.9154296875 25.159375 17.75 25.15 14.628515625 25.146875 12.45 22.9
L 12.45 22.85
Q 10.205078125 20.7236328125 10.2 17.65 10.1986328125 14.5083984375 12.45 12.25 14.6591796875 10.0478515625 17.75 10.05 20.9162109375 10.0478515625 23 12.25 Z"/>

<path fill="#FFFFFF" fill-opacity="0" stroke="none" d="
M 28.6 17.65
Q 28.6 13.15 25.35 9.95 22.3 6.8 17.75 6.8 13.35 6.8 10.2 9.95
L 10.15 10.05
Q 6.95 13.2 6.95 17.65 6.95 22.1 10.15 25.2 13.3 28.45 17.75 28.45 22.3 28.45 25.35 25.2 28.6 22.1 28.6 17.65
M 24.45 10.8
L 24.45 10.85
Q 27.298828125 13.64140625 27.3 17.65 27.305078125 21.5763671875 24.45 24.3
L 24.45 24.25
Q 21.7845703125 27.140234375 17.75 27.15 13.7892578125 27.1529296875 11.05 24.3
L 11 24.3
Q 8.1947265625 21.5587890625 8.2 17.65 8.2013671875 13.6916015625 11.05 10.85 13.8408203125 8.0521484375 17.75 8.05 21.765234375 8.051953125 24.45 10.8
M 23.05 12.25
L 23 12.25
Q 20.9162109375 10.0478515625 17.75 10.05 14.6591796875 10.0478515625 12.45 12.25 10.1986328125 14.5083984375 10.2 17.65 10.205078125 20.7236328125 12.45 22.85
L 12.45 22.9
Q 14.628515625 25.146875 17.75 25.15 20.9154296875 25.159375 23 22.9 23.0373046875 22.9013671875 23.05 22.85 25.2947265625 20.7236328125 25.3 17.65 25.3013671875 14.4767578125 23.05 12.25 Z"/>
</g>

<g id="iconUpload_0_Layer1_0_FILL">
<path fill="#FFFFFF" fill-opacity="0" stroke="none" d="
M 25 0
L 0 0 0 25 25 25 25 0 Z"/>
</g>

<g id="iconUpload_0_Layer0_0_FILL">
<path fill="#FFFFFF" stroke="none" d="
M 6.55 14.05
L 10.05 14.05 10.05 25 15.05 25 15.05 14.05 18.55 14.05 12.55 8.05 6.55 14.05
M 23.05 2.05
L 23.05 17.05 16.05 17.05 16.05 19.05 25 19.05 25 0 0 0 0 19.05 9.05 19.05 9.05 17.05 2.05 17.05 2.05 2.05 23.05 2.05 Z"/>
</g>
</defs><symbol id="icon-add" viewBox="0 0 15 15">


<g transform="matrix( 1, 0, 0, 1, 0,0) ">
<g transform="matrix( 1, 0, 0, 1, 0,0) ">
<use xlink:href="#icon_add_0_Layer1_0_FILL"/>
</g>

<g transform="matrix( 1, 0, 0, 1, 0,0) ">
<use xlink:href="#icon_add_0_Layer0_0_FILL"/>
</g>
</g>
</symbol><symbol id="icon-close" viewBox="0 0 32 32">


<g transform="matrix( 1, 0, 0, 1, 0,0) ">
<g transform="matrix( 1, 0, 0, 1, 0,0) ">
<use xlink:href="#icon_0_Layer1_0_FILL"/>
</g>

<g transform="matrix( 1, 0, 0, 1, 0,0) ">
<use xlink:href="#icon_0_Layer0_0_FILL"/>
</g>
</g>
</symbol><symbol id="icon-menu" viewBox="0 0 64 64">


<g transform="matrix( 1, 0, 0, 1, 0,0) ">
<g transform="matrix( 1, 0, 0, 1, 0,0) ">
<use xlink:href="#menu_0_Layer1_0_FILL"/>
</g>

<g transform="matrix( 1, 0, 0, 1, 0,0) ">
<use xlink:href="#menu_0_Layer0_0_FILL"/>
</g>
</g>
</symbol><symbol id="icon-settings" viewBox="0 0 36 36">


<g transform="matrix( 1, 0, 0, 1, 0.3,0.3) ">
<g transform="matrix( 1, 0, 0, 1, 0,0) ">
<use xlink:href="#icon_settings_0_Layer1_0_FILL"/>
</g>

<g transform="matrix( 1, 0, 0, 1, 0,0) ">
<use xlink:href="#icon_settings_0_Layer0_0_FILL"/>
</g>
</g>
</symbol><symbol id="icon-upload" viewBox="0 0 25 25">


<g transform="matrix( 1, 0, 0, 1, 0,0) ">
<g transform="matrix( 1, 0, 0, 1, 0,0) ">
<use xlink:href="#iconUpload_0_Layer1_0_FILL"/>
</g>

<g transform="matrix( 1, 0, 0, 1, 0,0) ">
<use xlink:href="#iconUpload_0_Layer0_0_FILL"/>
</g>
</g>
</symbol></svg>